<mxfile host="app.diagrams.net" modified="2023-12-07T03:33:52.823Z" agent="Mozilla/5.0 (Macintosh; Intel Mac OS X 10_15_7) AppleWebKit/537.36 (KHTML, like Gecko) Chrome/119.0.0.0 Safari/537.36" version="22.1.7" etag="My2yzYzLtu16AzSwPAhD" type="github">
  <diagram name="Page-1" id="_ImSUMfivgVaNDgEA8jq">
    <mxGraphModel>
      <root>
        <mxCell id="0" />
        <mxCell id="1" parent="0" />
      </root>
    </mxGraphModel>
  </diagram>
</mxfile>
